<?xml version="1.0" encoding="utf-8"?>
<!-- Generator: Adobe Illustrator 26.0.3, SVG Export Plug-In . SVG Version: 6.00 Build 0)  -->
<svg version="1.1" id="Layer_1" xmlns="http://www.w3.org/2000/svg" xmlns:xlink="http://www.w3.org/1999/xlink" x="0px" y="0px"
   viewBox="0 0 145 145" style="enable-background:new 0 0 145 145;" xml:space="preserve">
<style type="text/css">
  .st0{fill:#E8C80D;}
  .st1{fill:none;stroke:#0E0E24;stroke-width:3.98;stroke-linejoin:round;}
</style>
<g id="Layer_2_00000169527517722276598130000008596756416420483712_">
  <g id="job_alerts">
    <path class="st0" d="M72.5,2C33.6,2,2,33.6,2,72.5S33.6,143,72.5,143S143,111.4,143,72.5C143,33.6,111.4,2,72.5,2
      C72.5,2,72.5,2,72.5,2z"/>
    <path class="st1" d="M83.4,88.3L83.4,88.3c0-1.1,0.1-1.9,0.1-2.6c0-1.6,0-2.7,0-2.7c0-5.6,4.2-10.1,9.5-10.1h0.1
      c0.9,0,1.7,0.2,2.6,0.5c0.9,0.3,1.8,0.7,2.6,1.3v-30H36.5v46.3h46.7v-0.2C83.3,89.9,83.4,89.1,83.4,88.3z"/>
    <path class="st1" d="M102.4,83c0-3.3-1.5-6.4-4.2-8.3c-0.8-0.6-1.6-1-2.6-1.3c-0.8-0.3-1.7-0.4-2.6-0.5H93
      c-5.2,0-9.5,4.5-9.5,10.1c0,0,0,1.1,0,2.7c0,0.8,0,1.6-0.1,2.6v0.1c0,0.7-0.1,1.5-0.2,2.3v0.2c-0.5,5-1.9,10.3-5.6,10.3h10.2
      c0.1,2.8,2.2,5,5,5.2c2.8-0.1,5.1-2.3,5.2-5.2h10.3C101.8,101.2,102.4,83,102.4,83z"/>
    <polyline class="st1" points="36.5,44.6 67.3,70.3 98.2,44.6     "/>
    <line class="st1" x1="85.3" y1="101.2" x2="100.8" y2="101.2"/>
  </g>
</g>
</svg>