<svg xmlns="http://www.w3.org/2000/svg" viewBox="0 0 144.98 144.98"><defs><style>.cls-1,.cls-2{fill:none;stroke:#0e0e24;stroke-linecap:round;stroke-linejoin:round;stroke-width:3.98px;}.cls-2{opacity:0;}</style></defs><g id="Layer_2" data-name="Layer 2"><g id="AR"><path class="cls-1" d="M96.49,103.13c0,5.3-3.07,8.36-6.86,8.36H55.34c-3.78,0-6.85-3.06-6.85-8.36V38.8c0-2.25,3.07-5.31,6.85-5.31H89.63c3.79,0,6.86,3.06,6.86,5.31Z"/><line class="cls-1" x1="96.35" y1="39.49" x2="48.63" y2="39.49"/><line class="cls-1" x1="96.35" y1="105.49" x2="48.63" y2="105.49"/><line class="cls-1" x1="72.49" y1="74.07" x2="72.49" y2="87.49"/><polyline class="cls-1" points="60.49 65.78 60.49 79.2 72.49 87.49 84.49 79.2 84.49 65.78"/><polygon class="cls-1" points="74.78 72.49 84.49 65.78 72.49 57.49 60.49 65.78 70.2 72.49 72.49 74.07 74.78 72.49"/><polyline class="cls-1" points="41.06 66.49 33.49 72.49 41.06 78.49"/><polyline class="cls-1" points="103.91 66.49 111.49 72.49 103.91 78.49"/><polyline class="cls-1" points="88.84 57.49 72.21 45.49 56.13 57.1"/><polyline class="cls-1" points="88.84 87.49 72.21 99.49 56.13 87.89"/><path class="cls-2" d="M72.49,2A70.5,70.5,0,1,0,143,72.49,70.49,70.49,0,0,0,72.49,2Z"/></g></g></svg> 