<svg xmlns="http://www.w3.org/2000/svg" viewBox="0 0 144.98 144.98"><defs><style>.cls-1,.cls-2{fill:none;stroke:#0e0e24;stroke-linecap:round;stroke-linejoin:round;stroke-width:3.98px;}.cls-2{opacity:0;}</style></defs><g id="Layer_2" data-name="Layer 2"><g id="instant_messaging"><circle class="cls-1" cx="69.37" cy="36.37" r="2.88"/><line class="cls-1" x1="51.99" y1="102.49" x2="84.49" y2="102.49"/><path class="cls-1" d="M54.92,87.49a47.43,47.43,0,0,1-1.72,6"/><path class="cls-1" d="M69.27,48.49c-6.83,0-12.39,6.24-12.39,13.92h0s.19,4.76-.15,10.87c-.08,1.56-.19,3.17-.36,4.85v.1l0,.37c-.11,1-.22,2-.35,2.89"/><polygon class="cls-1" points="72.49 65.48 88.85 65.48 82.31 88.74 89.89 79.47 89.92 79.44 108.49 56.75 92.12 56.75 98.67 33.49 85.71 49.32 85.58 49.48 72.49 65.48"/><path class="cls-1" d="M69.49,111.49a9,9,0,0,0,9-9h-18A9,9,0,0,0,69.49,111.49Z"/><path class="cls-1" d="M89.92,79.44l0,0-7.58,9.27,6.54-23.26H72.49l13.09-16,.13-.16L85.58,49a19.68,19.68,0,0,0-16.37-9.52c-.08,0-.15,0-.23,0-11.09,0-20.07,9.73-20.07,21.73,0,0,.21,5-.15,11.5-.08,1.61-.2,3.28-.37,5l-.06.54c-1.12,10.72-4.1,24.23-11.84,24.23h66C94.94,102.49,91.24,90.19,89.92,79.44Z"/><path class="cls-2" d="M72.49,2A70.5,70.5,0,1,0,143,72.49,70.49,70.49,0,0,0,72.49,2Z"/></g></g></svg> 