<svg xmlns="http://www.w3.org/2000/svg" viewBox="0 0 1890 235.99"><defs><style>.cls-1{fill:#0e0e24;}</style></defs><g id="Layer_2" data-name="Layer 2"><g id="Layer_1-2" data-name="Layer 1"><path class="cls-1" d="M370.24,136.89q-7.07-13.14-22.24-21.57c-.9-.67-.9-1.35,0-2q25.61-14.49,25.61-46.52,0-36.06-21.73-51.4T287,.05H200a5,5,0,0,0-3.71,1.34A5,5,0,0,0,195,5.1V230.93A4.67,4.67,0,0,0,200,236h90q38.75,0,63-16.35t24.27-51.07q0-18.52-7.08-31.68"/><path class="cls-1" d="M149.66,118V75.3c0-2.69,1.08-5.14,4.73-6l24.44-4.43c1.93-.44,3.52-.81,3.52-4.49V4.74A4.74,4.74,0,0,0,177.62,0H90.12Q63.62.19,43.33,10.55a76.88,76.88,0,0,0-32,29.82Q0,59.65,0,85v66q0,25.38,11.37,44.65a76.94,76.94,0,0,0,32,29.82Q63.6,235.84,90.12,236h87.5a4.74,4.74,0,0,0,4.73-4.74V175.58c0-3.68-1.59-4.05-3.52-4.49l-24.44-4.43c-3.65-.83-4.73-3.28-4.73-6Z"/><path class="cls-1" d="M1811.87,83.33q-14.25,0-23.14,11.8c-.15.44-.38.59-.67.44a.88.88,0,0,1-.45-.89V87.56a2.66,2.66,0,0,0-2.67-2.67h-31.6a2.66,2.66,0,0,0-2.67,2.67V197.27a2.66,2.66,0,0,0,2.67,2.67h31.6a2.66,2.66,0,0,0,2.67-2.67V138.74A15.35,15.35,0,0,1,1792.4,127a20.5,20.5,0,0,1,11.68-5.34,28.16,28.16,0,0,1,5.79-.45,35.12,35.12,0,0,1,7.56.89q2.89,1.13,3.12-1.55l5.12-30.94a2.91,2.91,0,0,0-1.34-3.33q-4.45-2.9-12.46-2.9m-129.29,31.38a17.66,17.66,0,0,1,10.35,2.89,14.82,14.82,0,0,1,5.67,8.46,14.73,14.73,0,0,1,.89,4.45.79.79,0,0,1-.89.89H1667c-.89,0-1.19-.37-.89-1.11a19.75,19.75,0,0,1,1.11-4.68q3.78-10.89,15.36-10.9m54.52,17.58a65,65,0,0,0-9.46-25.48,51.52,51.52,0,0,0-18.8-17.58,53.73,53.73,0,0,0-26.26-6.34q-18.25,0-31.49,9.45t-19,25.93a70,70,0,0,0-3.56,22.25q0,16.69,4.67,27.82a49.57,49.57,0,0,0,20.37,24.59q14.13,8.81,34.38,8.79a68.49,68.49,0,0,0,25-4.45,50.63,50.63,0,0,0,19.25-12.9,2.6,2.6,0,0,0,.89-1.79,2.13,2.13,0,0,0-.89-1.78l-17.13-19.58a2.13,2.13,0,0,0-1.78-.89,2.53,2.53,0,0,0-2,1.11q-8,9.13-22,9.13a27.29,27.29,0,0,1-13.13-2.9,19.75,19.75,0,0,1-8-7.56,29.64,29.64,0,0,1-2.22-6.46.56.56,0,0,1,.22-.77,1.44,1.44,0,0,1,.89-.34h67.87a2.59,2.59,0,0,0,2.9-2.67,89.71,89.71,0,0,0-.67-17.58m-164.46,29.15q-4.67,8.69-13.57,8.68-9.35,0-14-8.45-4-7.35-4-19.14,0-12.24,4.45-19.81a14.56,14.56,0,0,1,13.58-8q8.46,0,13.13,7.79,4.23,7.13,4.23,20,0,11.79-3.79,18.91m3.79-114.61V93.12a.88.88,0,0,1-.45.89c-.3.15-.59,0-.89-.44q-8.23-10.45-24.26-10.46t-27.26,8.46a48.1,48.1,0,0,0-16.35,22.25,79.32,79.32,0,0,0-4.68,28,90.55,90.55,0,0,0,3.56,25.81q4.9,15.81,16.58,24.93a42.39,42.39,0,0,0,26.82,9.12q16.7,0,25.59-12.24a1,1,0,0,1,.89-.33c.3.08.45.33.45.78v7.34a2.66,2.66,0,0,0,2.67,2.67h31.6a2.66,2.66,0,0,0,2.67-2.67V46.83a2.66,2.66,0,0,0-2.67-2.67h-31.6a2.66,2.66,0,0,0-2.67,2.67M1454.7,199.94h31.6a2.66,2.66,0,0,0,2.67-2.67V46.83a2.66,2.66,0,0,0-2.67-2.67h-31.6a2.66,2.66,0,0,0-2.67,2.67V197.27a2.66,2.66,0,0,0,2.67,2.67m-53.86,0h31.61a2.66,2.66,0,0,0,2.67-2.67V87.56a2.66,2.66,0,0,0-2.67-2.67h-31.61a2.66,2.66,0,0,0-2.67,2.67V197.27a2.66,2.66,0,0,0,2.67,2.67m16-125.29a18.65,18.65,0,0,0,13.91-5.56,19,19,0,0,0,5.45-13.8q0-8.67-5.45-14a20.79,20.79,0,0,0-27.82,0q-5.46,5.34-5.45,14a18.65,18.65,0,0,0,19.36,19.36m-72.55,12.91V156.1a16.18,16.18,0,0,1-5,10A14.69,14.69,0,0,1,1329,169.9q-6.9,0-10.91-4.67t-4-12.47V87.56a2.66,2.66,0,0,0-2.67-2.67h-31.6a2.66,2.66,0,0,0-2.68,2.67v73.66q0,19.14,10.46,29.82T1315,201.72q19.13,0,28-12.68c.29-.45.59-.59.89-.45a.91.91,0,0,1,.44.89v7.79a2.66,2.66,0,0,0,2.67,2.67h31.6a2.66,2.66,0,0,0,2.67-2.67V87.56a2.66,2.66,0,0,0-2.67-2.67H1347a2.66,2.66,0,0,0-2.67,2.67m-137.53,80.56H1183a1,1,0,0,1-1.11-1.11v-29.6a1,1,0,0,1,1.11-1.11h23.81q9.12,0,13.91,4.11t4.79,11.69q0,7.78-4.9,11.9t-13.8,4.12M1183,75.77h22q9.12,0,14,4t4.9,11.35q0,7.13-4.9,11T1205,106h-22a1,1,0,0,1-1.11-1.11v-28a1,1,0,0,1,1.11-1.11m59.2,43.17q17.79-9.57,17.8-31.38,0-22.92-13.91-33.16T1205,44.16H1147.6a2.65,2.65,0,0,0-2.67,2.67V197.27a2.65,2.65,0,0,0,2.67,2.67h59.19q24.93,0,40.28-10.9t15.36-33.16q0-24.91-20.25-35.61c-.89-.44-.89-.89,0-1.33M1120,83.33q-14.24,0-23.14,11.8c-.15.44-.37.59-.67.44a.88.88,0,0,1-.45-.89V87.56a2.65,2.65,0,0,0-2.67-2.67h-31.6a2.66,2.66,0,0,0-2.67,2.67V197.27a2.66,2.66,0,0,0,2.67,2.67h31.6a2.65,2.65,0,0,0,2.67-2.67V138.74a15.35,15.35,0,0,1,4.79-11.79,20.5,20.5,0,0,1,11.68-5.34,28.22,28.22,0,0,1,5.79-.45,35.28,35.28,0,0,1,7.57.89q2.88,1.13,3.11-1.55l5.12-30.94a2.91,2.91,0,0,0-1.34-3.33q-4.45-2.9-12.46-2.9M990.71,114.71a17.66,17.66,0,0,1,10.35,2.89,14.82,14.82,0,0,1,5.67,8.46,14.73,14.73,0,0,1,.89,4.45.79.79,0,0,1-.89.89h-31.6c-.89,0-1.19-.37-.89-1.11a19.75,19.75,0,0,1,1.11-4.68q3.78-10.89,15.36-10.9m54.52,17.58a65,65,0,0,0-9.46-25.48A51.52,51.52,0,0,0,1017,89.23a53.73,53.73,0,0,0-26.26-6.34q-18.26,0-31.49,9.45t-19,25.93a70,70,0,0,0-3.56,22.25q0,16.69,4.67,27.82a49.57,49.57,0,0,0,20.37,24.59q14.13,8.81,34.38,8.79a68.58,68.58,0,0,0,25-4.45,50.7,50.7,0,0,0,19.25-12.9,2.6,2.6,0,0,0,.89-1.79,2.13,2.13,0,0,0-.89-1.78l-17.14-19.58a2.13,2.13,0,0,0-1.78-.89,2.53,2.53,0,0,0-2,1.11q-8,9.13-22,9.13a27.3,27.3,0,0,1-13.14-2.9,19.75,19.75,0,0,1-8-7.56,29.64,29.64,0,0,1-2.22-6.46.56.56,0,0,1,.22-.77,1.44,1.44,0,0,1,.89-.34H1043a2.59,2.59,0,0,0,2.89-2.67,89.71,89.71,0,0,0-.67-17.58M870.54,114.71a17.66,17.66,0,0,1,10.35,2.89,14.82,14.82,0,0,1,5.67,8.46,14.73,14.73,0,0,1,.89,4.45.79.79,0,0,1-.89.89H855c-.89,0-1.19-.37-.89-1.11a19.32,19.32,0,0,1,1.12-4.68q3.78-10.89,15.35-10.9m54.52,17.58a65,65,0,0,0-9.46-25.48,51.52,51.52,0,0,0-18.8-17.58,53.73,53.73,0,0,0-26.26-6.34q-18.25,0-31.49,9.45t-19,25.93a70,70,0,0,0-3.56,22.25q0,16.69,4.68,27.82a49.55,49.55,0,0,0,20.36,24.59q14.13,8.81,34.38,8.79a68.58,68.58,0,0,0,25-4.45,50.7,50.7,0,0,0,19.25-12.9,2.6,2.6,0,0,0,.89-1.79,2.13,2.13,0,0,0-.89-1.78L903,161.22a2.12,2.12,0,0,0-1.78-.89,2.55,2.55,0,0,0-2,1.11q-8,9.13-22,9.13a27.23,27.23,0,0,1-13.13-2.9,19.75,19.75,0,0,1-8-7.56,30.32,30.32,0,0,1-2.23-6.46.56.56,0,0,1,.22-.77,1.44,1.44,0,0,1,.89-.34h67.88a2.59,2.59,0,0,0,2.89-2.67,88.93,88.93,0,0,0-.67-17.58m-126.4-49q-14.25,0-23.15,11.8c-.15.44-.37.59-.66.44a.88.88,0,0,1-.45-.89V87.56a2.66,2.66,0,0,0-2.67-2.67h-31.6a2.66,2.66,0,0,0-2.67,2.67V197.27a2.66,2.66,0,0,0,2.67,2.67h31.6a2.66,2.66,0,0,0,2.67-2.67V138.74q0-7.34,4.79-11.79a20.47,20.47,0,0,1,11.68-5.34,28,28,0,0,1,5.78-.45,35.14,35.14,0,0,1,7.57.89q2.89,1.13,3.12-1.55l5.12-30.94a2.91,2.91,0,0,0-1.34-3.33q-4.46-2.9-12.46-2.9M665.14,175.24q-6,0-9.35-2.89a9.78,9.78,0,0,1-3.34-7.79,9.6,9.6,0,0,1,4.56-8.68q4.56-2.9,13-2.89h13.35a1,1,0,0,1,1.12,1.11v5.34a13.93,13.93,0,0,1-5.45,11.46q-5.46,4.33-13.91,4.34m3.56-92.13a68.35,68.35,0,0,0-25.48,4.56Q631.75,92.23,625,100.13a30.91,30.91,0,0,0-7.68,17.7c0,1,.89,1.7,2.67,2l32,4.23c1.33.15,2.37-.59,3.11-2.23a9.58,9.58,0,0,1,5-5.12,20,20,0,0,1,9.23-2q7.13,0,11.13,3.45a11.83,11.83,0,0,1,4,9.46v4.23a1,1,0,0,1-1.12,1.11H661.8q-22.69,0-34.61,9.34t-11.9,26.49q0,16.25,10.57,24.59t28.37,8.34q20.47,0,28.93-12.46c.3-.59.59-.85.89-.78s.45.41.45,1v7.79a2.54,2.54,0,0,0,.78,1.89,2.51,2.51,0,0,0,1.89.78h31.6a2.66,2.66,0,0,0,2.67-2.67V121.39a30.82,30.82,0,0,0-6.9-19.48q-6.9-8.79-18.91-13.79a69.44,69.44,0,0,0-26.93-5M546.3,201.72q17.81,0,31.27-6.56a49.65,49.65,0,0,0,20.92-18.58q7.44-12,7.45-27.82a2,2,0,0,0-.78-1.56,2.79,2.79,0,0,0-1.89-.67L571.67,145c-1.78,0-2.67.81-2.67,2.44q0,10.25-6.23,16.47t-16.47,6.23q-10.24,0-16.47-6.23t-6.23-16.47V96.91q0-10.25,6.23-16.58T546.3,74q10.23,0,16.47,6.24T569,96.91c0,1.63.89,2.44,2.67,2.44l31.6-2a2.79,2.79,0,0,0,1.89-.67,2.21,2.21,0,0,0,.78-1.78q0-15.57-7.45-27.48A49.87,49.87,0,0,0,577.57,49Q564.1,42.4,546.3,42.38T515,49.28a50.62,50.62,0,0,0-20.92,19.48q-7.46,12.57-7.45,29v48.07q0,16.68,7.45,29.37A50.27,50.27,0,0,0,515,194.82q13.47,6.9,31.27,6.9"/><path class="cls-1" d="M1873.74,13.89a31,31,0,0,1,12,11.54A31.78,31.78,0,0,1,1890,41.85a34.21,34.21,0,0,1-4.31,17.08,30.91,30.91,0,0,1-12,11.95,33.84,33.84,0,0,1-16.91,4.31A33.41,33.41,0,0,1,1840,70.88a31,31,0,0,1-11.87-11.95,34.21,34.21,0,0,1-4.31-17.08,31.78,31.78,0,0,1,4.31-16.42A31.12,31.12,0,0,1,1840,13.89a33.87,33.87,0,0,1,16.83-4.23A34.31,34.31,0,0,1,1873.74,13.89Zm-.16,45a23.18,23.18,0,0,0,6.66-17A22.26,22.26,0,0,0,1868.7,22.1a24.91,24.91,0,0,0-23.74,0,21.8,21.8,0,0,0-8.37,8.21,22.61,22.61,0,0,0-3,11.54q0,10.41,6.58,17.08a24.17,24.17,0,0,0,33.42-.09Zm-9.11-14.55c-.43.11-.54.44-.32,1l3.41,9.59a1.8,1.8,0,0,1,.16.81c0,1-.59,1.47-1.78,1.47h-4.07a2,2,0,0,1-2.11-1.63l-3.09-9.1c-.22-.44-.49-.65-.81-.65h-.33a.72.72,0,0,0-.81.81v8.62a1.95,1.95,0,0,1-2,2h-3.58a1.95,1.95,0,0,1-2-2V29a1.95,1.95,0,0,1,2-2h9.59a9.21,9.21,0,0,1,6.91,2.76,9.44,9.44,0,0,1,2.69,6.83C1868.38,40.23,1867.07,42.78,1864.47,44.29Zm-9.75-9.92v4.88a.72.72,0,0,0,.81.82h2.11a3.06,3.06,0,0,0,2.36-1,3.25,3.25,0,0,0,.9-2.28,3.09,3.09,0,0,0-3.26-3.25h-2.11A.72.72,0,0,0,1854.72,34.37Z"/></g></g></svg>