<svg xmlns="http://www.w3.org/2000/svg" viewBox="0 0 144.98 144.98"><defs><style>.cls-1,.cls-2{fill:none;stroke:#0e0e24;stroke-linecap:round;stroke-width:3.98px;}.cls-1{stroke-miterlimit:10;}.cls-2{stroke-linejoin:round;opacity:0;}</style></defs><g id="Layer_2" data-name="Layer 2"><g id="search_on_the_go"><path class="cls-1" d="M71.66,67.16a9.24,9.24,0,1,1,9.24-9.24,9.24,9.24,0,0,1-9.24,9.24"/><line class="cls-1" x1="67.04" y1="104.12" x2="48.57" y2="104.12"/><line class="cls-1" x1="94.76" y1="104.12" x2="76.28" y2="104.12"/><path class="cls-1" d="M86.06,40a22.58,22.58,0,0,0-14.4-5.21c-12.73,0-23.09,10.65-23.09,23.75,0,19.53,18.43,33.16,23.09,36.3C76,92,91.84,80.18,94.38,63.16a15.46,15.46,0,0,1-6.12-3.73A15.68,15.68,0,0,1,86.06,40Z"/><path class="cls-1" d="M110.47,37.21a15.75,15.75,0,0,0-22.22,0A15.5,15.5,0,0,0,86.05,40a15.68,15.68,0,0,0,2.2,19.39,15.46,15.46,0,0,0,6.12,3.73,16,16,0,0,0,5.7.84,15.7,15.7,0,0,0,10.4-26.79Z"/><path class="cls-1" d="M91.2,48.32a8.19,8.19,0,0,1,8.17-8.17"/><line class="cls-1" x1="120.98" y1="69.93" x2="110.83" y2="59.78"/><path class="cls-2" d="M72.49,2A70.5,70.5,0,1,0,143,72.49,70.49,70.49,0,0,0,72.49,2Z"/></g></g></svg> 