<svg xmlns="http://www.w3.org/2000/svg" width="191.856" height="23.956" viewBox="0 0 191.856 23.956">
  <g id="Website_white" data-name="Website white" transform="translate(95.928 11.978)">
    <g id="Group_3534" data-name="Group 3534" transform="translate(-95.928 -11.978)">
      <g id="Group_3532" data-name="Group 3532">
        <g id="Group_3531" data-name="Group 3531">
          <path id="Path_5153" data-name="Path 5153" d="M212.761,13.938a5.51,5.51,0,0,0-2.258-2.19q-.137-.1,0-.205a5.022,5.022,0,0,0,2.6-4.722q0-3.66-2.207-5.218T204.31.046h-8.828a.51.51,0,0,0-.376.137.509.509,0,0,0-.137.376V23.484a.474.474,0,0,0,.513.513h9.136a11.241,11.241,0,0,0,6.4-1.66,5.807,5.807,0,0,0,2.463-5.184,6.7,6.7,0,0,0-.718-3.216" transform="translate(-175.177 -0.041)" fill="#fff"/>
          <path id="Path_5154" data-name="Path 5154" d="M15.192,11.978V7.644a.563.563,0,0,1,.48-.607l2.48-.449c.2-.045.358-.082.358-.456V.481A.48.48,0,0,0,18.03,0H9.148V0A10.418,10.418,0,0,0,4.4,1.071,7.81,7.81,0,0,0,1.154,4.1,8.756,8.756,0,0,0,0,8.63v6.695a8.756,8.756,0,0,0,1.154,4.532A7.81,7.81,0,0,0,4.4,22.885a10.418,10.418,0,0,0,4.75,1.068v0H18.03a.48.48,0,0,0,.48-.481V17.824c0-.374-.162-.411-.358-.456l-2.48-.449a.563.563,0,0,1-.48-.607Z" fill="#fff"/>
        </g>
      </g>
      <path id="Path_5155" data-name="Path 5155" d="M621.184,40.743a2.812,2.812,0,0,0-2.349,1.2c-.015.045-.038.061-.068.045a.09.09,0,0,1-.045-.09v-.723a.27.27,0,0,0-.271-.271h-3.208a.27.27,0,0,0-.271.271V52.309a.27.27,0,0,0,.271.271h3.208a.27.27,0,0,0,.271-.271V46.368a1.558,1.558,0,0,1,.486-1.2,2.087,2.087,0,0,1,1.186-.542,2.89,2.89,0,0,1,.587-.045,3.568,3.568,0,0,1,.768.09q.293.113.316-.158l.52-3.14a.3.3,0,0,0-.136-.339,2.314,2.314,0,0,0-1.265-.294m-13.125,3.185a1.786,1.786,0,0,1,1.05.294,1.917,1.917,0,0,1,.667,1.31.08.08,0,0,1-.09.09h-3.208c-.09,0-.121-.037-.09-.113a1.953,1.953,0,0,1,.113-.474,1.514,1.514,0,0,1,1.559-1.107m5.535,1.785a6.611,6.611,0,0,0-.96-2.587,5.231,5.231,0,0,0-1.909-1.785,5.456,5.456,0,0,0-2.666-.644,5.355,5.355,0,0,0-3.2.96,5.294,5.294,0,0,0-1.932,2.632,7.1,7.1,0,0,0-.361,2.259,7.324,7.324,0,0,0,.474,2.824,5.032,5.032,0,0,0,2.067,2.5,6.479,6.479,0,0,0,3.49.892,6.966,6.966,0,0,0,2.541-.452A5.141,5.141,0,0,0,613.1,51a.261.261,0,0,0,.09-.181.216.216,0,0,0-.09-.181l-1.74-1.988a.215.215,0,0,0-.181-.09.258.258,0,0,0-.2.113,2.821,2.821,0,0,1-2.237.926A2.765,2.765,0,0,1,607.4,49.3a2.008,2.008,0,0,1-.813-.768,3.07,3.07,0,0,1-.226-.655.058.058,0,0,1,.023-.079.15.15,0,0,1,.09-.034h6.89a.263.263,0,0,0,.294-.271,9.059,9.059,0,0,0-.068-1.785M596.9,48.672a1.5,1.5,0,0,1-1.378.881,1.531,1.531,0,0,1-1.423-.858,4.044,4.044,0,0,1-.407-1.943,3.935,3.935,0,0,1,.452-2.011,1.546,1.546,0,0,1,2.711-.023,4.008,4.008,0,0,1,.429,2.033,4.1,4.1,0,0,1-.384,1.92m.384-11.634v4.7a.091.091,0,0,1-.045.09q-.046.023-.09-.045a2.945,2.945,0,0,0-2.462-1.062,4.471,4.471,0,0,0-2.767.858,4.885,4.885,0,0,0-1.66,2.259,8.057,8.057,0,0,0-.474,2.846,9.173,9.173,0,0,0,.362,2.621,4.975,4.975,0,0,0,1.683,2.53,4.3,4.3,0,0,0,2.722.926,3.016,3.016,0,0,0,2.6-1.242.094.094,0,0,1,.09-.034c.03.008.045.034.045.079v.745a.27.27,0,0,0,.271.271h3.208a.27.27,0,0,0,.271-.271V37.038a.27.27,0,0,0-.271-.271h-3.208a.27.27,0,0,0-.271.271M584.927,52.58h3.208a.27.27,0,0,0,.271-.271V37.038a.27.27,0,0,0-.271-.271h-3.208a.27.27,0,0,0-.271.271V52.309a.27.27,0,0,0,.271.271m-5.467,0h3.208a.27.27,0,0,0,.271-.271V41.172a.27.27,0,0,0-.271-.271H579.46a.27.27,0,0,0-.271.271V52.309a.27.27,0,0,0,.271.271m1.626-12.718A1.892,1.892,0,0,0,582.5,39.3a2,2,0,0,0-2.824-2.824,1.971,1.971,0,0,0,1.412,3.389m-7.364,1.31V48.13a1.648,1.648,0,0,1-.508,1.017,1.492,1.492,0,0,1-1.051.384,1.382,1.382,0,0,1-1.107-.474,1.877,1.877,0,0,1-.407-1.265V41.172a.27.27,0,0,0-.271-.271h-3.208a.27.27,0,0,0-.271.271v7.478a4.141,4.141,0,0,0,1.062,3.027,3.715,3.715,0,0,0,2.779,1.084,3.236,3.236,0,0,0,2.846-1.288c.03-.045.06-.06.09-.045a.092.092,0,0,1,.045.091v.791a.27.27,0,0,0,.271.271H577.2a.27.27,0,0,0,.271-.271V41.172a.27.27,0,0,0-.271-.271h-3.208a.27.27,0,0,0-.271.271M559.762,49.35h-2.417a.1.1,0,0,1-.113-.113v-3a.1.1,0,0,1,.113-.113h2.417a2.107,2.107,0,0,1,1.412.418,1.7,1.7,0,0,1-.011,2.395,2.115,2.115,0,0,1-1.4.418m-2.417-9.375h2.236a2.2,2.2,0,0,1,1.423.407,1.4,1.4,0,0,1,.5,1.152,1.347,1.347,0,0,1-.5,1.118,2.239,2.239,0,0,1-1.423.4h-2.236a.1.1,0,0,1-.113-.113V40.088a.1.1,0,0,1,.113-.113m6.009,4.383a3.34,3.34,0,0,0,1.807-3.185,3.9,3.9,0,0,0-1.412-3.366,6.99,6.99,0,0,0-4.168-1.039h-5.828a.27.27,0,0,0-.271.271V52.309a.27.27,0,0,0,.271.271h6.009a6.912,6.912,0,0,0,4.089-1.107,3.851,3.851,0,0,0,1.559-3.366,3.767,3.767,0,0,0-2.056-3.614q-.135-.068,0-.135m-12.4-3.615a2.812,2.812,0,0,0-2.349,1.2c-.015.045-.038.061-.068.045a.09.09,0,0,1-.045-.09v-.723a.27.27,0,0,0-.271-.271H545.01a.27.27,0,0,0-.271.271V52.309a.27.27,0,0,0,.271.271h3.208a.27.27,0,0,0,.271-.271V46.368a1.558,1.558,0,0,1,.486-1.2,2.087,2.087,0,0,1,1.186-.542,2.889,2.889,0,0,1,.587-.045,3.569,3.569,0,0,1,.768.09q.293.113.316-.158l.52-3.14a.3.3,0,0,0-.136-.339,2.314,2.314,0,0,0-1.265-.294m-13.125,3.185a1.786,1.786,0,0,1,1.05.294,1.917,1.917,0,0,1,.667,1.31.08.08,0,0,1-.09.09h-3.208c-.09,0-.121-.037-.09-.113a1.95,1.95,0,0,1,.113-.474,1.514,1.514,0,0,1,1.559-1.107m5.535,1.785a6.611,6.611,0,0,0-.96-2.587,5.231,5.231,0,0,0-1.909-1.785,5.456,5.456,0,0,0-2.666-.644,5.355,5.355,0,0,0-3.2.96,5.294,5.294,0,0,0-1.932,2.632,7.1,7.1,0,0,0-.361,2.259,7.323,7.323,0,0,0,.474,2.824,5.031,5.031,0,0,0,2.067,2.5,6.479,6.479,0,0,0,3.49.892,6.967,6.967,0,0,0,2.542-.452A5.142,5.142,0,0,0,542.864,51a.261.261,0,0,0,.09-.181.216.216,0,0,0-.09-.181l-1.74-1.988a.215.215,0,0,0-.181-.09.258.258,0,0,0-.2.113,2.821,2.821,0,0,1-2.237.926,2.765,2.765,0,0,1-1.333-.294,2.007,2.007,0,0,1-.813-.768,3.067,3.067,0,0,1-.226-.655.058.058,0,0,1,.023-.079.149.149,0,0,1,.09-.034h6.89a.263.263,0,0,0,.294-.271,9.059,9.059,0,0,0-.068-1.785m-17.733-1.785a1.786,1.786,0,0,1,1.05.294,1.916,1.916,0,0,1,.666,1.31.08.08,0,0,1-.09.09h-3.208c-.09,0-.121-.037-.09-.113a1.96,1.96,0,0,1,.113-.474,1.513,1.513,0,0,1,1.559-1.107m5.535,1.785a6.612,6.612,0,0,0-.96-2.587,5.231,5.231,0,0,0-1.909-1.785,5.456,5.456,0,0,0-2.666-.644,5.354,5.354,0,0,0-3.2.96,5.294,5.294,0,0,0-1.931,2.632,7.09,7.09,0,0,0-.361,2.259,7.319,7.319,0,0,0,.474,2.824,5.031,5.031,0,0,0,2.067,2.5,6.479,6.479,0,0,0,3.49.892,6.965,6.965,0,0,0,2.541-.452A5.141,5.141,0,0,0,530.666,51a.26.26,0,0,0,.09-.181.215.215,0,0,0-.09-.181l-1.739-1.988a.215.215,0,0,0-.181-.09.259.259,0,0,0-.2.113,2.82,2.82,0,0,1-2.236.926,2.764,2.764,0,0,1-1.333-.294,2.007,2.007,0,0,1-.813-.768,3.06,3.06,0,0,1-.226-.655.058.058,0,0,1,.022-.079.15.15,0,0,1,.09-.034h6.89a.263.263,0,0,0,.294-.271,9.074,9.074,0,0,0-.068-1.785m-12.831-4.97a2.812,2.812,0,0,0-2.349,1.2c-.015.045-.038.061-.068.045a.09.09,0,0,1-.045-.09v-.723a.27.27,0,0,0-.271-.271H512.39a.27.27,0,0,0-.271.271V52.309a.27.27,0,0,0,.271.271H515.6a.27.27,0,0,0,.271-.271V46.368a1.557,1.557,0,0,1,.486-1.2,2.087,2.087,0,0,1,1.186-.542,2.891,2.891,0,0,1,.587-.045,3.572,3.572,0,0,1,.768.09q.293.113.316-.158l.52-3.14a.3.3,0,0,0-.136-.339,2.314,2.314,0,0,0-1.265-.294m-13.554,9.33a1.4,1.4,0,0,1-.949-.294.992.992,0,0,1-.339-.791.975.975,0,0,1,.463-.881,2.475,2.475,0,0,1,1.322-.294h1.355a.1.1,0,0,1,.113.113v.542a1.414,1.414,0,0,1-.553,1.164,2.2,2.2,0,0,1-1.412.44m.361-9.352a6.942,6.942,0,0,0-2.587.463,4.656,4.656,0,0,0-1.852,1.265,3.138,3.138,0,0,0-.78,1.8q0,.158.271.2l3.253.429q.2.023.316-.226a.968.968,0,0,1,.508-.52,2.024,2.024,0,0,1,.937-.2,1.678,1.678,0,0,1,1.13.35,1.2,1.2,0,0,1,.406.96v.429a.1.1,0,0,1-.113.113h-2.191a5.594,5.594,0,0,0-3.513.949,3.219,3.219,0,0,0-1.209,2.688,2.988,2.988,0,0,0,1.073,2.5,4.521,4.521,0,0,0,2.88.847,3.289,3.289,0,0,0,2.937-1.265c.03-.06.06-.086.09-.079s.045.042.045.1v.791a.27.27,0,0,0,.271.271h3.208a.27.27,0,0,0,.271-.271v-7.7a3.127,3.127,0,0,0-.7-1.977,4.652,4.652,0,0,0-1.92-1.4,7.046,7.046,0,0,0-2.733-.508M492.714,52.761a7.16,7.16,0,0,0,3.174-.666,5.028,5.028,0,0,0,2.123-1.886,5.246,5.246,0,0,0,.757-2.824.2.2,0,0,0-.079-.158.285.285,0,0,0-.192-.068L495.289,47q-.271,0-.271.248a2.306,2.306,0,1,1-4.609,0V42.121a2.3,2.3,0,0,1,.633-1.683,2.238,2.238,0,0,1,1.672-.644,2.261,2.261,0,0,1,1.672.633,2.291,2.291,0,0,1,.633,1.694q0,.249.271.248l3.208-.2a.286.286,0,0,0,.192-.068.226.226,0,0,0,.079-.181,5.148,5.148,0,0,0-.757-2.79,5.057,5.057,0,0,0-2.123-1.875,7.164,7.164,0,0,0-3.174-.667,6.871,6.871,0,0,0-3.174.7,5.131,5.131,0,0,0-2.124,1.977,5.668,5.668,0,0,0-.757,2.948v4.879a5.774,5.774,0,0,0,.757,2.982,5.1,5.1,0,0,0,2.124,1.988,6.865,6.865,0,0,0,3.174.7" transform="translate(-437.258 -32.284)" fill="#fff"/>
      <g id="Group_3533" data-name="Group 3533" transform="translate(185.139 0.981)">
        <path id="Path_5156" data-name="Path 5156" d="M1828.892,10.089a3.147,3.147,0,0,1,1.213,1.172,3.224,3.224,0,0,1,.437,1.667,3.467,3.467,0,0,1-.437,1.733,3.135,3.135,0,0,1-1.213,1.213,3.434,3.434,0,0,1-1.717.437,3.388,3.388,0,0,1-1.708-.437,3.15,3.15,0,0,1-1.2-1.213,3.466,3.466,0,0,1-.437-1.733,3.223,3.223,0,0,1,.437-1.667,3.162,3.162,0,0,1,1.2-1.172,3.44,3.44,0,0,1,1.708-.429A3.487,3.487,0,0,1,1828.892,10.089Zm-.016,4.564a2.354,2.354,0,0,0,.677-1.725,2.264,2.264,0,0,0-1.172-2.005,2.53,2.53,0,0,0-2.41,0,2.213,2.213,0,0,0-.85.834,2.3,2.3,0,0,0-.305,1.172,2.362,2.362,0,0,0,.668,1.733,2.453,2.453,0,0,0,3.392-.008Zm-.924-1.477c-.044.011-.055.044-.033.1l.347.974a.187.187,0,0,1,.016.083q0,.148-.182.149h-.412a.207.207,0,0,1-.215-.165l-.314-.924c-.022-.044-.049-.066-.083-.066h-.033a.073.073,0,0,0-.083.083v.875a.2.2,0,0,1-.2.2h-.363a.2.2,0,0,1-.2-.2V11.624a.2.2,0,0,1,.2-.2h.974a.935.935,0,0,1,.7.281.957.957,0,0,1,.272.693A.825.825,0,0,1,1827.951,13.176Zm-.99-1.007v.5a.073.073,0,0,0,.083.083h.215a.309.309,0,0,0,.239-.1.332.332,0,0,0,.091-.231.312.312,0,0,0-.33-.33h-.215A.073.073,0,0,0,1826.961,12.169Z" transform="translate(-1823.825 -9.66)" fill="#fff"/>
      </g>
    </g>
  </g>
</svg>
