<?xml version="1.0" encoding="utf-8"?>
<!-- Generator: Adobe Illustrator 26.0.3, SVG Export Plug-In . SVG Version: 6.00 Build 0)  -->
<svg version="1.1" id="Layer_1" xmlns="http://www.w3.org/2000/svg" xmlns:xlink="http://www.w3.org/1999/xlink" x="0px" y="0px"
   viewBox="0 0 145 145" style="enable-background:new 0 0 145 145;" xml:space="preserve">
<style type="text/css">
  .st0{fill:#E8C80D;}
  .st1{fill:none;stroke:#0E0E24;stroke-width:3.98;stroke-linecap:round;stroke-miterlimit:10;}
</style>
<g id="Layer_2_00000147196875522105606670000013940460296847229612_">
  <g id="quick">
    <path class="st0" d="M72.5,2C33.6,2,2,33.6,2,72.5S33.6,143,72.5,143S143,111.4,143,72.5C143,33.6,111.4,2,72.5,2
      C72.5,2,72.5,2,72.5,2z"/>
    <line class="st1" x1="21.4" y1="60.5" x2="38.5" y2="60.5"/>
    <line class="st1" x1="27.4" y1="72.5" x2="36.5" y2="72.5"/>
    <line class="st1" x1="33.4" y1="84.5" x2="38.2" y2="84.5"/>
    <path class="st1" d="M102,53.9C91.7,37.6,70.2,32.7,53.9,43s-21.2,31.8-11,48.1s31.8,21.2,48.1,11c10.2-6.4,16.3-17.5,16.3-29.5
      C107.3,65.9,105.5,59.5,102,53.9z"/>
    <polyline class="st1" points="72.5,51.6 72.5,72.5 86.4,86.4     "/>
  </g>
</g>
</svg>